# xmcd
# 
# Track frame offsets:
#     150
#     22333
#     48702
#     68564
#     87981
#     105249
#     137825
#     153930
#     176245
#     194727
# 
# Disc length: 2933
# 
# Revision: 3
# Processed by: cddbd v1.5.2PL0 Copyright (c) Steve Scherf et al.
# Submitted via: fre:ac v1.0.31
# 
DISCID=8d0b730a
DTITLE=Robben Ford - Bringing It Back Home
DYEAR=2013
DGENRE=Blues
TTITLE0=Everything I Do Gonna Be Funky
TTITLE1=Birds Nest Bound
TTITLE2=Fair Child
TTITLE3=Oh, Virginia
TTITLE4=Slick Capers Blues
TTITLE5=On That Morning
TTITLE6=Traveler's Waltz
TTITLE7=Most Likely You Go Your Way And I'll Go Mine
TTITLE8=Trick Bag
TTITLE9=Fool's Paradise
EXTD=YEAR: 2013
EXTT0=
EXTT1=
EXTT2=
EXTT3=
EXTT4=
EXTT5=
EXTT6=
EXTT7=
EXTT8=
EXTT9=
PLAYORDER=
